# xmcd CD database file
#
# Track frame offsets:
#	150
#	58925
#	104916
#	182335
#
# Disc length: 2794 seconds
#
# Revision: 0
# Processed by: cddbd v1.5.1PL0 Copyright (c) Steve Scherf et al.
# Submitted via: CDex 1.51
#
DISCID=350ae804
DTITLE=Markos Resende Quarteto - CD1 - XI Chivas Jazz Lounge 'Trib a R. Rodgers'
DYEAR=2005
DGENRE=Jazz
TTITLE0=My Romance
TTITLE1=My Favourite Things
TTITLE2=My Funny Valentine
TTITLE3=The Lady is a Tramp
EXTD=YEAR: 2005
EXTT0=
EXTT1=
EXTT2=
EXTT3=
PLAYORDER=
